<svg height="511pt" viewBox="-53 1 511 511.999" width="511pt" xmlns="http://www.w3.org/2000/svg"><path d="m133.207031 201.453125h139.753907c43.613281 0 78.96875 35.355469 78.96875 78.972656v141.382813h-297.691407v-141.382813c0-43.617187 35.355469-78.972656 78.96875-78.972656zm0 0" fill="#feda9b"/><path d="m116.058594 331.933594c56.511718-14.179688 104.222656-51.917969 131.035156-103.640625l13.914062-26.839844h11.949219c36.875 0 67.839844 25.273437 76.535157 59.4375v159.371094h-233.433594zm0 0" fill="#ffc66c"/><path d="m290.773438 203.496094v218.3125h61.15625v-141.382813c0-37.488281-26.125-68.847656-61.15625-76.929687zm0 0" fill="#feda9b"/><path d="m356.128906 501.984375h-305.523437c-22.140625 0-40.089844-17.945313-40.089844-40.085937 0-22.140626 17.949219-40.089844 40.089844-40.089844h305.523437c22.140625 0 40.085938 17.949218 40.085938 40.089844 0 22.140624-17.949219 40.085937-40.085938 40.085937zm0 0" fill="#ffb954"/><path d="m124.617188 167.140625c-9.46875 0-17.144532-7.675781-17.144532-17.144531v-32.652344c0-9.46875 7.675782-17.144531 17.144532-17.144531s17.144531 7.675781 17.144531 17.144531v32.652344c0 9.46875-7.675781 17.144531-17.144531 17.144531zm0 0" fill="#feda9b"/><path d="m264.40625 112.160156v32.761719c0 31.21875-25.3125 56.53125-56.53125 56.53125h-9.582031c-31.222657 0-56.53125-25.308594-56.53125-56.53125v-32.761719c0-21.589844 17.5-39.089844 39.089843-39.089844h44.464844c21.589844 0 39.089844 17.5 39.089844 39.089844zm0 0" fill="#feda9b"/><path d="m264.324219 115.40625s-5.039063-32.195312-17.636719-39.40625c-14.554688-8.324219-22.015625 3.734375-43.605469 3.734375-21.589843 0-29.050781-12.058594-43.601562-3.734375-12.601563 7.210938-17.640625 39.40625-17.640625 39.40625l-14.0625-16.746094v-30.191406c0-32.285156 26.171875-58.453125 58.453125-58.453125h33.707031c32.28125 0 58.453125 26.167969 58.453125 58.453125v30.191406zm0 0" fill="#ffc66c"/><path d="m281.550781 167.140625c9.464844 0 17.140625-7.675781 17.140625-17.144531v-32.652344c0-9.46875-7.675781-17.144531-17.140625-17.144531-9.46875 0-17.144531 7.675781-17.144531 17.144531v32.652344c0 9.46875 7.675781 17.144531 17.144531 17.144531zm0 0" fill="#feda9b"/><path d="m54.238281 361.957031c2.632813 0 5.214844-1.070312 7.078125-2.933593 1.863282-1.863282 2.933594-4.445313 2.933594-7.078126 0-2.636718-1.070312-5.21875-2.933594-7.082031-1.863281-1.859375-4.445312-2.933593-7.078125-2.933593-2.632812 0-5.21875 1.070312-7.082031 2.933593-1.859375 1.863281-2.933594 4.445313-2.933594 7.082031 0 2.632813 1.074219 5.214844 2.933594 7.078126 1.863281 1.863281 4.4375 2.933593 7.082031 2.933593zm0 0"/><path d="m361.945312 412.140625v-131.714844c0-49.070312-39.917968-88.988281-88.988281-88.988281h-17.558593c5.109374-5.222656 9.378906-11.273438 12.5625-17.941406 3.996093 2.324218 8.636718 3.660156 13.585937 3.660156 14.976563 0 27.15625-12.183594 27.15625-27.160156v-32.652344c0-12.609375-8.632813-23.234375-20.300781-26.28125v-22.59375c0-37.753906-30.714844-68.46875-68.46875-68.46875h-33.703125c-37.753907 0-68.46875 30.714844-68.46875 68.46875v22.59375c-11.667969 3.042969-20.304688 13.671875-20.304688 26.28125v32.652344c0 14.976562 12.183594 27.160156 27.160157 27.160156 4.949218 0 9.585937-1.339844 13.585937-3.660156 3.183594 6.667968 7.449219 12.71875 12.5625 17.941406h-17.5625c-49.066406 0-88.984375 39.917969-88.984375 88.984375v32.230469c0 5.527344 4.484375 10.011718 10.015625 10.011718 5.527344 0 10.011719-4.484374 10.011719-10.011718v-32.230469c0-38.023437 30.933594-68.957031 68.957031-68.957031h111.332031l-6.335937 12.214844c-23.558594 45.449218-64.171875 79.570312-112.613281 95.105468v-36.605468c0-5.527344-4.480469-10.011719-10.011719-10.011719s-10.015625 4.484375-10.015625 10.011719v129.613281h-41.3125v-26.003907c0-5.527343-4.484375-10.011718-10.011719-10.011718-5.53125 0-10.015625 4.484375-10.015625 10.011718v26.425782c-24.621094 3.144531-43.71875 24.21875-43.71875 49.679687 0 27.628907 22.476562 50.105469 50.101562 50.105469h305.523438c27.625 0 50.101562-22.476562 50.101562-50.105469.003907-25.65625-19.386718-46.859375-44.28125-49.753906zm-73.265624-262.144531c0 3.933594-3.199219 7.132812-7.132813 7.132812-3.929687 0-7.128906-3.199218-7.128906-7.132812v-32.652344c0-3.933594 3.199219-7.128906 7.128906-7.128906 3.933594 0 7.132813 3.195312 7.132813 7.128906zm-102.449219-129.96875h33.707031c26.707031 0 48.4375 21.730468 48.4375 48.441406v22.71875c-3.523438-9.566406-8.871094-19.390625-16.714844-23.878906-12.25-7.003906-21.8125-3.875-30.25-1.113282-5.300781 1.734376-10.777344 3.527344-18.328125 3.527344-7.546875 0-13.027343-1.792968-18.324219-3.527344-8.4375-2.765624-18.003906-5.894531-30.25 1.113282-7.84375 4.488281-13.191406 14.3125-16.714843 23.878906v-22.71875c0-26.710938 21.726562-48.441406 48.4375-48.441406zm-54.484375 129.96875c0 3.933594-3.195313 7.132812-7.128906 7.132812-3.929688 0-7.128907-3.199218-7.128907-7.132812v-32.652344c0-3.933594 3.199219-7.128906 7.128907-7.128906 3.933593 0 7.128906 3.195312 7.128906 7.128906zm20.03125-5.074219v-27.578125c0-.1875-.011719-.371094-.015625-.554688 2.054687-12.953124 7.75-29.269531 12.691406-32.09375 4.347656-2.488281 6.507813-1.941406 14.074219.535157 6.152344 2.011719 13.8125 4.519531 24.554687 4.519531 10.742188 0 18.402344-2.507812 24.558594-4.519531 7.566406-2.480469 9.722656-3.023438 14.074219-.535157 4.914062 2.808594 10.613281 19.132813 12.691406 32.097657-.003906.183593-.015625.367187-.015625.550781v27.578125c0 25.648437-20.867187 46.515625-46.515625 46.515625h-9.582031c-25.648438 0-46.515625-20.867188-46.515625-46.515625zm104.207031 87.976563 11.113281-21.433594h5.863282c2.636718 0 5.238281.164062 7.800781.457031v140.074219c0 5.527344 4.480469 10.011718 10.011719 10.011718s10.015624-4.484374 10.015624-10.011718v-134.644532c24.195313 10.71875 41.128907 34.949219 41.128907 63.074219v131.367188h-216.328125v-72.074219c56.152344-16.167969 103.40625-54.757812 130.394531-106.820312zm-235.453125 229c0-16.585938 13.492188-30.078126 30.074219-30.078126h71.519531c26.859375 0 51.828125 13.316407 66.792969 35.621094 6.425781 9.578125 14.324219 17.828125 23.292969 24.53125h-161.605469c-16.582031 0-30.074219-13.492187-30.074219-30.074218zm335.59375 30.074218h-63.046875c-.367187-.042968-.738281-.066406-1.121094-.066406h-19.617187c-26.859375 0-51.828125-13.316406-66.792969-35.621094-6.402344-9.546875-14.273437-17.769531-23.207031-24.464844h173.785156c16.585938 0 30.074219 13.492188 30.074219 30.078126 0 16.582031-13.488281 30.074218-30.074219 30.074218zm0 0"/><path d="m290.777344 397.648438c2.636718 0 5.207031-1.070313 7.070312-2.933594 1.875-1.875 2.945313-4.445313 2.945313-7.082032 0-2.632812-1.070313-5.214843-2.945313-7.078124-1.851562-1.863282-4.433594-2.933594-7.070312-2.933594-2.640625 0-5.226563 1.070312-7.089844 2.933594-1.859375 1.863281-2.933594 4.4375-2.933594 7.078124 0 2.636719 1.074219 5.21875 2.933594 7.082032 1.875 1.859375 4.445312 2.933594 7.089844 2.933594zm0 0"/></svg>