<?xml version="1.0" encoding="iso-8859-1"?>
<!-- Generator: Adobe Illustrator 19.0.0, SVG Export Plug-In . SVG Version: 6.00 Build 0)  -->
<svg version="1.1" id="Capa_1" xmlns="http://www.w3.org/2000/svg" xmlns:xlink="http://www.w3.org/1999/xlink" x="0px" y="0px"
	 viewBox="0 0 511.999 511.999" style="enable-background:new 0 0 511.999 511.999;" xml:space="preserve">
<path style="fill:#DBC1A2;" d="M450.465,391.367c-5.057,15.172-25.924,21.494-25.924,21.494H89.33c0,0-26.562-4.42-32.884-13.908
	c-6.322-9.488-1.902-34.785,16.437-43.009c18.349-8.224,44.273-6.322,50.606-10.752c6.322-4.43,5.684-6.959,6.573-15.183
	c0.878-8.213,6.708-17.701,6.708-17.701s-3.793-6.332-6.332-13.918c-0.052-0.146-0.104-0.334-0.146-0.533
	c-1.087-5.078,0.815-23.657,3.114-42.455c1.964-16.165,4.211-32.487,5.068-40.501c1.902-17.701,4.43-46.165,12.644-51.222
	c8.224-5.068,69.132-29.728,69.132-29.728s3.804,59.446,6.332,97.397c2.529,37.952,13.908,49.331,36.05,46.802
	c22.131-2.529,30.355-27.199,28.453-63.876c-1.891-36.687,1.954-80.323,1.954-80.323s75.213,20.24,82.8,27.199
	c4.18,3.824,6.635,28.756,8.527,54.294c1.536,20.836,2.696,42.079,4.127,52.591c3.156,23.396,1.264,29.091,5.057,42.372
	c3.793,13.281-4.43,22.131-2.529,25.935c1.891,3.793,13.908,1.264,29.833,7.586C436.777,350.25,455.533,376.185,450.465,391.367z"/>
<rect x="63.299" y="439.337" style="fill:#FFC173;" width="386.673" height="64.827"/>
<rect x="63.299" y="447.832" style="fill:#FFB44D;" width="386.673" height="23.81"/>
<rect x="55.013" y="412.869" style="fill:#FFC173;" width="403.246" height="39.545"/>
<rect x="55.013" y="412.869" style="fill:#FFB44D;" width="403.246" height="19.772"/>
<g>
	<path style="fill:#A38C77;" d="M391.019,336.342c0,0-4.43,7.586-21.504,0.627c-14.911-6.071-30.773,4.723-40.689,2.09v0.01
		c-13.229,14.002-49.446,17.983-57.774,15.151c-8.328-2.821-36.896-9.666-36.896-9.666c10.731-1.087,27.116-7.492,27.116-7.492
		s0.815-0.878,1.766-2.247c0,0,10.919-1.306,18.453-5.287c2.55-1.348,5.935-2.163,9.279-2.654
		c7.931-0.428,12.967-0.658,12.967-0.658c2.006-3.103,6.029-6.688,10.721-10.209c0.01,0,0.01,0,0.01,0
		c6.75-1.923,42.539,0.073,53.991-16.99c7.806-11.63,13.229-56.29,15.904-83.573c1.536,20.836,2.696,42.079,4.127,52.591
		c3.156,23.396,1.264,29.091,5.057,42.372C397.341,323.688,389.118,332.538,391.019,336.342z"/>
	<path style="fill:#A38C77;" d="M297.562,353.061c0,0-16.729,34.618-49.498,27.638c-22.654-4.828-35.057-26.478-35.057-26.478
		l-0.617-0.982c-9.258,2.142-21.964,1.432-40.971-8.683c-11.62,6.165-35.036,9.927-47.931,0.637
		c6.322-4.43,5.684-6.959,6.573-15.183c0.878-8.213,6.708-17.701,6.708-17.701s-3.793-6.332-6.332-13.918
		c-0.052-0.146-0.104-0.334-0.146-0.533c-1.087-5.078,0.815-23.657,3.114-42.455c8.192,15.611,24.702,35.569,43.845,39.822
		c0,0.01,10.115,9.488,13.281,13.918c3.156,4.43,12.644,10.752,12.644,10.752s19.718-1.285,29.488,1.306
		c9.78,2.581,23.333-3.992,30.062,0c8.516,5.037-1.452,15.862-1.452,15.862s-16.384,6.405-27.116,7.492
		c0,0,28.568,6.844,36.896,9.666C275.159,355.621,286.015,355.349,297.562,353.061z"/>
	<path style="fill:#A38C77;" d="M450.465,391.367c-5.057,15.172-25.924,21.494-25.924,21.494H89.33c0,0-26.562-4.42-32.884-13.908
		c-3.417-5.131-3.699-14.869-0.334-24.033c-2.017,8.004,13.887,10.157,22.769,12.758c8.882,2.591,16.834-6.98,16.834-6.98
		s8.244,5.946,23.396,6.98c15.151,1.024,25.851,0.439,25.851,0.439s41.452,5.841,61.88-0.439c0,0,59.174,13.845,94.053,0
		c0,0,20.271,4.169,32.622-6.98c0,0,21.922,10.449,47.262,0c0,0,16.761,5.632,26.969-2.759c0,0,11.599,7.628,20.658,8.328
		c5.444,0.418,15.12-3.762,21.985-7.168C451.531,383.53,451.667,387.752,450.465,391.367z"/>
	<path style="fill:#A38C77;" d="M232.744,344.813l1.413-0.256c-0.465,0.047-0.934,0.132-1.408,0.246
		C232.749,344.804,232.744,344.813,232.744,344.813z"/>
</g>
<path style="fill:#DBC1A2;" d="M291.083,214.274c1.902,36.677-6.322,61.347-28.453,63.876c-22.142,2.529-33.521-8.85-36.05-46.802
	c-2.529-37.952-6.332-97.397-6.332-97.397v-28.422h72.716v28.422c0,0,0.021,0.052,0.063,0.136
	C292.786,136.771,289.254,178.778,291.083,214.274z"/>
<g>
	<path style="fill:#A38C77;" d="M263.654,253.599c-18.361,1.791-30.395-3.41-36.909-20.071
		c2.819,36.194,14.176,47.101,35.885,44.622c17.851-2.04,26.65-18.492,28.388-44.025
		C285.667,245.391,276.739,252.321,263.654,253.599z"/>
	<path style="fill:#A38C77;" d="M292.964,105.529v11.442c-1.766,6.061-4.974,11.494-9.248,15.893
		c-5.747,5.914-13.406,9.969-22.016,11.17c-1.755,0.24-3.521,0.366-5.298,0.366c-1.766,0-3.542-0.125-5.298-0.366
		c-14.556-2.038-26.384-12.205-30.857-25.747v-12.758C220.248,105.529,292.964,105.529,292.964,105.529z"/>
	<path style="fill:#A38C77;" d="M286.082,110.575c0,0-3.444,21.765,13.392,21.765c10.015,0,17.312-12.21,13.827-26.77
		c-3.042-12.709,1.744-25.405,3.261-31.472c1.517-6.067-11.929-11.224-11.929-11.224h-18.552L286.082,110.575L286.082,110.575z"/>
	<path style="fill:#A38C77;" d="M227.199,110.575c0,0,3.444,21.765-13.392,21.765c-10.015,0-17.312-12.21-13.827-26.77
		c3.042-12.709-1.744-25.405-3.261-31.472c-1.517-6.067,11.453-11.224,11.453-11.224h19.027V110.575z"/>
</g>
<g>
	<path style="fill:#DBC1A2;" d="M299.244,43.461l-3.103,30.637l-0.449,4.023l-1.442,12.999c-0.961,8.642-4.796,16.416-10.533,22.33
		c-5.747,5.914-13.406,9.969-22.016,11.17c-1.755,0.24-3.521,0.366-5.298,0.366c-1.766,0-3.542-0.125-5.298-0.366
		c-17.22-2.414-30.627-16.207-32.549-33.5l-1.442-12.999l-0.449-4.023l-3.103-30.637C213.56,43.461,299.244,43.461,299.244,43.461z"
		/>
	<path style="fill:#DBC1A2;" d="M292.794,25.564c0,0-7.271-14.551-20.011-16.371c-12.741-1.82-20.021-1.82-32.76,0
		s-20.011,16.371-20.011,16.371c-16.683,9.707-11.84,37.311-11.84,37.311l8.493,11.224c-2.73-22.75,11.527-28.817,22.144-27.908
		c10.616,0.91,24.57,0.91,35.188,0c10.617-0.91,24.874,5.157,22.144,27.908l8.493-11.224
		C304.634,62.875,309.478,35.271,292.794,25.564z"/>
</g>
<path style="fill:#A38C77;" d="M299.244,43.461l-3.103,30.637l-0.449,4.023c-2.915-12.382-13.417-15.925-21.693-15.214
	c-10.616,0.909-24.577,0.909-35.193,0c-8.276-0.711-18.777,2.832-21.693,15.214l-0.449-4.023l-3.103-30.637
	C213.56,43.461,299.244,43.461,299.244,43.461z"/>
<path d="M458.26,405.03h-6.958c2.797-3.166,5.163-6.875,6.601-11.188c4.229-12.686-3.091-26.641-7.831-33.83
	c-7.22-10.952-17.061-19.687-26.326-23.368c-9.334-3.707-17.534-4.69-22.961-5.339c-0.303-0.037-0.619-0.074-0.936-0.113
	c1.737-5.144,4.033-13.134,1.233-22.937c-1.078-3.775-1.637-6.8-1.999-9.998c-0.007-0.07-0.014-0.14-0.023-0.21
	c-0.27-2.443-0.429-4.998-0.621-8.075c-0.349-5.621-0.784-12.615-2.186-22.989c-0.975-7.21-1.868-20.286-2.815-34.13
	c-3.623-52.993-5.909-71.619-12.304-77.482c-1.97-1.806-6.068-5.561-47.291-17.936c-6.326-1.899-12.577-3.715-18.157-5.307
	c0.069-0.085,0.14-0.164,0.208-0.251c5.65-7.162,7.53-17.678,5.028-28.129c-2.108-8.807,0.551-18.157,2.31-24.345
	c0.365-1.279,0.687-2.421,0.933-3.403c2.16-8.639-5.2-14.577-11.171-17.862c0.558-9.696-0.377-28.457-14.31-38.107
	c-2.929-4.947-11.198-16.653-24.794-18.594c-13.401-1.914-21.573-1.915-34.978,0c-13.597,1.941-21.865,13.649-24.794,18.594
	c-13.978,9.681-14.873,28.535-14.304,38.203c-7.071,4.075-12.579,10.255-10.7,17.766c0.246,0.982,0.569,2.126,0.933,3.407
	c1.76,6.187,4.418,15.536,2.309,24.34c-2.502,10.452-0.622,20.967,5.029,28.13c0.611,0.775,1.26,1.493,1.936,2.166
	c-18.989,7.83-46.504,19.386-52.31,22.959c-10.237,6.3-13.088,26.318-15.999,53.91l-0.334,3.159
	c-0.463,4.326-1.351,11.211-2.378,19.183c-5.367,41.639-7.404,61.282-5.294,67.616c1.499,4.495,3.384,8.568,4.829,11.407
	c-2.074,4.081-4.892,10.586-5.568,16.902c-0.117,1.091-0.209,2.085-0.293,3c-0.438,4.76-0.443,4.814-2.897,6.534
	c-1.794,0.914-8.68,1.682-13.72,2.246c-10.796,1.205-24.232,2.705-35.676,7.836c-10.439,4.679-18.448,14.38-21.976,26.615
	c-3.05,10.578-2.2,21.265,2.217,27.89c0.557,0.836,1.212,1.632,1.933,2.397c-2.755,1.215-4.68,3.966-4.68,7.17v39.545
	c0,4.329,3.508,7.837,7.837,7.837h0.449v43.914c0,4.329,3.508,7.837,7.837,7.837h386.675c4.329,0,7.837-3.508,7.837-7.837v-43.914
	h0.449c4.329,0,7.837-3.508,7.837-7.837v-39.545C466.097,408.538,462.589,405.03,458.26,405.03z M417.961,351.211
	c13.354,5.304,28.352,27.839,25.073,37.674c-2.868,8.606-14.414,14.257-19.756,16.145H406.2c8.741-12.903,11.353-31.659,9.19-43.909
	c-0.753-4.263-4.823-7.109-9.079-6.355c-4.262,0.752-7.108,4.817-6.355,9.079c1.448,8.204-0.172,24.825-8.249,34.452
	c-3.8,4.53-8.443,6.731-14.193,6.731h-5.358c7.729-6.468,14.702-15.493,18.178-28.015c3.415-12.298,1.215-22.355-2.54-29.939
	c1.488-0.37,2.792-0.864,3.913-1.427c2.228,0.614,4.692,0.915,7.216,1.218C404.089,347.485,410.523,348.256,417.961,351.211z
	 M328.074,405.03c11.992-13.954,17.68-32.821,17.081-43.005c-0.254-4.32-3.935-7.623-8.283-7.365
	c-4.322,0.254-7.619,3.962-7.365,8.283c0.573,9.744-9.096,35.26-27.155,42.086h-8.374c9.116-7.152,17.12-16.178,22.218-25.854
	c6.336-12.027,7.172-20.383,6.069-26.012c3.396-1.709,6.512-3.665,9.192-5.88c4.75,0.149,9.678-1.025,14.282-2.136
	c6.812-1.644,13.843-3.329,19.976-1.224c2.882,2.327,14.04,12.6,9.514,28.896c-6.97,25.102-34.187,31.357-38.571,32.209h-8.584
	V405.03z M184.736,405.03c-6.385-1.664-22.074-7.276-30.383-16.747c-4.583-5.225-6.264-16.071-6.526-19.81
	c-0.292-4.311-4.038-7.59-8.334-7.289c-4.32,0.284-7.589,4.017-7.304,8.335c0.125,1.911,1.488,18.961,10.381,29.1
	c2.064,2.353,4.376,4.483,6.814,6.412h-37.801c-1.957-2.6-5.45-8.579-7.566-20.061c-2.348-12.746,4.879-24.38,8.309-29.036
	c4.119-0.506,7.626-1.063,10.542-1.956c6.882,3.587,14.647,4.643,21.367,4.643c4.197,0,7.987-0.409,10.893-0.86
	c5.146-0.8,10.967-2.282,16.167-4.47c6.565,3.236,12.481,5.416,17.823,6.79c-0.7,9.527,1.074,25.092,16.685,37.073l2.311,1.776
	c2.858,2.196,5.498,4.219,8.022,6.102L184.736,405.03L184.736,405.03z M205.616,327.608c4.968-0.238,13.911-0.408,20.526,0.369
	c1.363,0.528,2.215,0.763,2.366,0.801c0.666,0.173,1.332,0.257,1.988,0.257c0.318,0,0.629-0.041,0.94-0.078
	c5.973,1.368,12.201,0.427,17.724-0.409c2.699-0.411,6.985-1.064,8.91-0.785c-0.316,0.772-0.886,1.769-1.535,2.688
	c-0.006,0.009-0.014,0.018-0.02,0.027c-5.42,1.995-16.204,5.577-23.149,6.28c-0.086,0.008-0.168,0.027-0.254,0.037
	c-0.113,0.016-0.226,0.029-0.338,0.049c-3.891,0.529-7.279,2.276-10.848,4.137c-5.667,2.955-12.196,6.353-22.63,5.154
	c-0.19-0.03-0.381-0.055-0.572-0.072c-3.804-0.492-8.123-1.596-13.093-3.536C190.464,337.798,199.445,331.514,205.616,327.608z
	 M285.151,336.456c3.698-1.954,12.202-2.581,17.516-2.432c1.712,0.446,7.021,2.008,12.312,5.31
	c-14.013,6.915-36.418,9.118-41.406,7.469c-2.084-0.707-5.31-1.638-9.011-2.645c0.933-0.433,1.78-1.033,2.479-1.793
	c0.067-0.072,0.156-0.172,0.247-0.275C271.565,341.343,279.049,339.68,285.151,336.456z M330.872,331.501
	c-0.015-0.004-0.028-0.009-0.043-0.013c-0.296-0.085-0.541-0.203-0.719-0.363c-3.897-3.481-8.184-6.082-12.08-7.989
	c3.569-2.743,7.929-5.693,12.4-8.508c10.802,1.941,26.276,6.166,30.459,10.432c0.878,0.895,1.829,1.692,2.812,2.436
	c-7.857-0.901-15.312,0.887-21.637,2.412C337.988,330.895,333.042,332.088,330.872,331.501z M229.174,354.88
	c1.775-0.925,3.588-1.867,4.849-2.295c6.192,1.498,27.743,6.762,34.514,9.061c2.32,0.787,6.021,1.205,10.557,1.205
	c0.527,0,1.067-0.006,1.615-0.018c-6.878,6.797-17.292,13.112-31.008,10.196c-11.4-2.428-19.913-10.177-24.885-15.955
	C226.394,356.326,227.844,355.574,229.174,354.88z M386.012,312.559c0.688,2.406,0.811,4.619,0.624,6.681
	c-5.129-0.501-11.412-1.947-14.554-5.15c-4.154-4.236-11.352-7.496-18.683-9.913c3.762-0.397,7.954-0.171,11.236,1.675
	c5.131,2.888,10.229,3.851,14.746,3.851c2.055,0,3.984-0.204,5.747-0.512C385.389,310.275,385.677,311.388,386.012,312.559z
	 M167.255,337.927c-3.077,1.489-7.584,2.961-12.593,3.917c1.909-2.828,3.746-6.135,5.372-10.011
	c3.705-8.834,16.197-15.082,24.184-18.044c1.346,1.859,3.322,3.818,5.401,5.633c-6.473,4.499-14.528,10.655-18.586,15.932
	c-0.466,0.606-1.36,1.273-2.573,1.949C168.042,337.473,167.64,337.686,167.255,337.927z M145.58,325.771
	c-2.629,6.27-5.887,10.307-8.613,12.846c0.3-1.622,0.458-3.282,0.615-5.006c0.076-0.842,0.161-1.759,0.269-2.763
	c0.493-4.597,3.371-10.513,4.992-13.408c6.579-5.389,17.559-12.349,26.411-14.225C160.337,307.744,150.094,315.006,145.58,325.771z
	 M217.666,386.5l-2.322-1.784c-9.508-7.296-10.916-16.711-10.657-22.689c1.356-0.027,2.661-0.108,3.917-0.237
	c5.026,7.099,17.845,22.311,37.83,26.569c3.493,0.745,6.858,1.086,10.088,1.086c22.88,0,39.021-17.119,46.22-29.473
	c1.391-0.322,2.782-0.674,4.167-1.053c-0.232,2.553-1.28,6.685-4.581,12.952c-9.997,18.979-32.709,33.16-46.337,33.16
	C241.77,405.03,235.206,399.984,217.666,386.5z M247.923,268.781c-1.031-0.531-1.838-1.11-2.487-1.651
	c-5.86-4.888-9.411-15.937-10.842-33.703c7.358-0.367,16.1-2.802,23.055-9.552c5.54,4.007,14.218,8.49,25.621,8.888
	c-0.194,3.25-0.51,6.453-0.984,9.537c-2.255,14.667-8.018,26.632-20.55,28.064C257.172,270.886,252.111,270.937,247.923,268.781
	C246.892,268.251,249.183,269.43,247.923,268.781z M205.125,75.12c-0.129-0.452-0.251-0.884-0.367-1.294
	c0.318-0.28,0.726-0.589,1.186-0.907l3.17,4.189l1.653,14.878c0.931,8.377,4.094,16.066,8.888,22.461
	c0.054,3.138-0.457,6.952-2.006,8.748c-0.337,0.392-1.129,1.309-3.843,1.309c-1.879,0-3.275-1.27-4.115-2.334
	c-2.088-2.646-3.732-7.916-2.092-14.774C210.664,94.602,207.197,82.407,205.125,75.12z M227.72,57.354
	c3.518-3.639,8.863-3.487,10.419-3.354c11.094,0.951,25.432,0.951,36.526,0c1.556-0.133,6.901-0.285,10.42,3.354
	c3.45,3.569,3.831,9.526,3.419,14.367l-0.153,1.511l-1.893,17.021c-1.528,13.743-12.159,24.684-25.852,26.607
	c-2.788,0.39-5.619,0.39-8.406,0c-13.694-1.923-24.326-12.864-25.853-26.606l-1.884-16.947l-0.164-1.614
	C223.892,66.858,224.276,60.917,227.72,57.354z M308.493,73.929c-0.107,0.377-0.218,0.773-0.335,1.186
	c-2.072,7.287-5.54,19.484-2.478,32.281c1.642,6.858-0.003,12.127-2.091,14.773c-0.84,1.066-2.237,2.335-4.115,2.335
	c-2.714,0-3.505-0.917-3.842-1.309c-1.665-1.929-2.131-6.185-1.985-9.43c4.513-6.257,7.492-13.696,8.391-21.778l1.654-14.879
	l3.248-4.293C307.543,73.202,308.083,73.583,308.493,73.929z M283.11,211.458c0.002,0.039,0.003,0.076,0.005,0.115
	c0.045,1.039,0.093,2.074,0.146,3.103c0.041,0.791,0.077,1.587,0.109,2.388c-9.441-0.485-15.948-5.11-18.897-7.733v-24.152
	c0-4.329-3.508-7.837-7.837-7.837c-4.329,0-7.837,3.508-7.837,7.837v25.052c-4.325,6-10.7,7.418-15.267,7.551
	c-0.205-3.108-0.414-6.288-0.625-9.508c-1.121-17.129-2.228-34.261-3.332-51.391c-0.693-10.761-1.214-18.916-1.414-22.039
	c0.527-0.497,1.002-0.997,1.417-1.482c1.744-2.041,2.968-4.348,3.834-6.703c5.003,2.894,10.61,4.881,16.608,5.722
	c2.118,0.298,4.25,0.446,6.382,0.446c2.133,0,4.264-0.148,6.382-0.446c6.156-0.864,11.899-2.936,17.002-5.956
	c0.868,2.436,2.112,4.826,3.914,6.937c0.409,0.479,0.877,0.971,1.395,1.461C284.442,142.806,281.72,178.914,283.11,211.458
	C283.112,211.497,281.72,178.914,283.11,211.458z M223.952,32.339c1.299-0.755,2.37-1.902,3.054-3.239
	c1.554-3.04,7.12-11.147,14.124-12.147c11.99-1.715,18.557-1.715,30.544,0c7.003,1,12.569,9.106,14.124,12.146
	c0.683,1.352,1.744,2.478,3.054,3.24c5.098,2.967,7.271,8.973,8.105,14.77c-0.202-0.225-0.403-0.441-0.604-0.648
	c-5.108-5.284-12.373-8.196-20.252-8.196c-0.917,0-1.844,0.04-2.775,0.119c-10.123,0.867-23.726,0.867-33.849,0
	c-8.929-0.762-17.325,2.179-23.027,8.076c-0.2,0.208-0.402,0.423-0.603,0.647C216.683,41.309,218.855,35.303,223.952,32.339z
	 M143.846,235.257c1.039-8.063,1.937-15.025,2.417-19.518l0.338-3.185c0.87-8.248,1.953-18.512,3.635-27.131
	c2.367-12.127,4.756-14.811,5.083-15.129c5.113-3.075,34.862-15.582,57.806-24.979c1.125,17.547,3.4,52.889,5.203,80.104
	c0.136,2.151,0.285,4.302,0.428,6.452c1.632,24.472,6.763,39.058,16.638,47.296c7.709,6.431,18.376,8.163,28.122,6.77
	c11.644-1.33,24.494-7.882,31.137-28.025c0.316-0.959,0.619-1.949,0.906-2.971c0.719-2.555,1.344-5.307,1.863-8.273
	c1.559-8.895,2.169-19.702,1.492-32.802c-0.552-10.672-0.599-21.364-0.419-32.047c0.268-15.206,1.053-29.095,1.643-37.807
	c30.973,8.573,63.791,18.825,70.052,22.698c3.53,7.51,6.176,46.2,7.611,67.208c1.006,14.723,1.876,27.438,2.92,35.161
	c1.327,9.813,1.742,16.494,2.075,21.863c0.059,0.937,0.115,1.849,0.174,2.745c-2.89,0.579-6.81,0.667-10.65-1.494
	c-1.917-1.078-3.89-1.891-5.872-2.486c3.883-4.442,6.974-9.583,7.792-15.164c0.947-6.467,1.695-19.69,2.223-39.299
	c0.116-4.327-3.296-7.929-7.623-8.045c-4.34-0.15-7.929,3.297-8.045,7.623c-0.497,18.459-1.23,31.759-2.064,37.45
	c-0.371,2.536-2.326,5.415-5.042,8.241c0.199-7.805,0.286-23.408,0.036-55.619c-0.033-4.307-3.536-7.775-7.836-7.775
	c-0.021,0-0.042,0-0.063,0c-4.328,0.033-7.81,3.57-7.775,7.899c0.387,49.553-0.067,58.7-0.247,60.371
	c-0.682,2.665-1.743,5.916-2.514,8.183c-2.556,1.403-6.237,3.482-10.342,5.978c4.038-12.045,7.326-26.934,7.326-43.542
	c0-4.329-3.508-7.837-7.837-7.837c-4.329,0-7.837,3.508-7.837,7.837c0,29.66-12.204,53.721-17.21,62.342
	c-5.692,0.115-15.152,0.86-21.564,4.249c-1.222,0.646-2.612,1.216-4.055,1.719c-0.719-4.089-3.201-7.585-7.055-9.865
	c-5.945-3.517-13.041-2.44-19.906-1.4c-4.465,0.676-9.079,1.378-12.144,0.568c-1.358-0.359-2.854-0.654-4.433-0.894
	c-4.014-1.851-12.725-7.033-20.376-19.525c-6.347-10.364-6.497-24.419-6.498-24.609c-0.009-4.321-3.514-7.819-7.837-7.819
	c-4.329,0-7.837,3.508-7.837,7.837c0,0.751,0.1,18.562,8.807,32.777c1.837,2.999,3.744,5.674,5.669,8.073
	c-2.368-1.872-4.437-3.723-5.259-4.874c-1.039-1.453-2.62-3.276-4.356-5.148c-0.054-0.06-0.109-0.12-0.165-0.179
	c-2.51-2.695-5.32-5.471-7.3-7.387v-40.055c0-4.329-3.508-7.837-7.837-7.837s-7.837,3.508-7.837,7.837v28.537
	c-0.527-0.978-0.97-2.066-1.258-3.307c-2.927-12.592-3.303-39.289-3.307-39.557c-0.055-4.293-3.552-7.736-7.834-7.736
	c-0.033,0-0.068,0-0.103,0.001c-4.328,0.055-7.791,3.608-7.735,7.936c0.015,1.163,0.402,28.662,3.712,42.906
	c0.908,3.904,2.471,7.216,4.406,9.999c-6.82,2.714-13.07,6.526-17.726,9.747c-0.562-1.329-1.119-2.755-1.619-4.236
	C136.82,289.769,141.561,252.986,143.846,235.257C144.885,227.195,141.561,252.986,143.846,235.257
	C144.885,227.195,141.561,252.986,143.846,235.257C144.885,227.195,141.561,252.986,143.846,235.257z M62.767,379.75
	c1.064-3.688,4.49-12.693,13.327-16.654c4.994-2.238,10.833-3.656,16.681-4.661c-3.551,7.833-6.251,18.097-4.173,29.372
	c1.32,7.162,3.134,12.806,5.054,17.222h-3.656c-11.104-1.95-24.44-6.532-27.034-10.425C61.448,392.33,60.864,386.351,62.767,379.75z
	 M450.423,420.704v23.871H147.196c-4.329,0-7.837,3.508-7.837,7.837c0,4.329,3.508,7.837,7.837,7.837h294.942v36.077H71.137v-36.077
	h46.021c4.329,0,7.837-3.508,7.837-7.837c0-4.329-3.508-7.837-7.837-7.837H62.85v-23.871H450.423z"/>
<path d="M220.271,491.167h8.746c4.329,0,7.837-3.508,7.837-7.837s-3.508-7.837-7.837-7.837h-8.746c-4.329,0-7.837,3.508-7.837,7.837
	S215.943,491.167,220.271,491.167z"/>
<path d="M259.122,491.167h17.492c4.329,0,7.837-3.508,7.837-7.837s-3.508-7.837-7.837-7.837h-17.492
	c-4.329,0-7.837,3.508-7.837,7.837S254.794,491.167,259.122,491.167z"/>
<path d="M345.747,207.586c0.049,0,0.099,0,0.149-0.001c4.327-0.08,7.77-3.654,7.69-7.982l-0.271-14.569
	c-0.079-4.278-3.573-7.691-7.833-7.691c-0.049,0-0.099,0-0.149,0.001c-4.327,0.08-7.77,3.654-7.69,7.982l0.271,14.569
	C337.994,204.173,341.486,207.586,345.747,207.586z"/>
<path d="M177.244,233.45c4.329,0,7.837-3.508,7.837-7.837v-34.11c0-4.329-3.508-7.837-7.837-7.837s-7.837,3.508-7.837,7.837v34.11
	C169.407,229.943,172.915,233.45,177.244,233.45z"/>
<path d="M232.365,304.544c7.309,3.908,15.878,5.894,25.222,5.894c3.957,0,8.054-0.356,12.253-1.073
	c14.402-2.46,25.734-10.198,33.68-23.004c8.504-13.703,13.072-33.549,13.579-58.99c0.875-43.787,0.026-59.695-0.01-60.35
	c-0.24-4.323-3.946-7.625-8.26-7.389c-4.322,0.24-7.63,3.939-7.389,8.26c0.008,0.155,0.852,15.967-0.01,59.167
	c-0.81,40.623-12.327,63.116-34.228,66.856c-16.635,2.841-38.024,0.031-45.402-29.488c-8.288-33.148-12.54-81.154-10.949-88.868
	c0.876-4.238-1.852-8.383-6.091-9.258c-4.229-0.882-8.383,1.851-9.258,6.091c-2.404,11.647,2.927,63.178,11.091,95.838
	C210.906,285.488,219.577,297.707,232.365,304.544z"/>
<path d="M236.784,75.869h6.371c4.329,0,7.837-3.508,7.837-7.837c0-4.329-3.508-7.837-7.837-7.837h-6.371
	c-4.329,0-7.837,3.508-7.837,7.837S232.456,75.869,236.784,75.869z"/>
<path d="M268.828,75.869h6.37c4.329,0,7.837-3.508,7.837-7.837c0-4.329-3.508-7.837-7.837-7.837h-6.37
	c-4.329,0-7.837,3.508-7.837,7.837S264.5,75.869,268.828,75.869z"/>
<path d="M248.158,84.226v4.944c0,4.329,3.508,7.837,7.837,7.837s7.837-3.508,7.837-7.837v-4.944c0-4.329-3.508-7.837-7.837-7.837
	S248.158,79.897,248.158,84.226z"/>
<g>
</g>
<g>
</g>
<g>
</g>
<g>
</g>
<g>
</g>
<g>
</g>
<g>
</g>
<g>
</g>
<g>
</g>
<g>
</g>
<g>
</g>
<g>
</g>
<g>
</g>
<g>
</g>
<g>
</g>
</svg>
