<svg height="511pt" viewBox="-45 1 511 511.99935" width="511pt" xmlns="http://www.w3.org/2000/svg"><path d="m405.066406 391.367188c-5.058594 15.171874-25.925781 21.496093-25.925781 21.496093h-335.210937s-26.5625-4.421875-32.882813-13.910156-1.902344-34.785156 16.4375-43.007813c18.347656-8.222656 44.273437-6.324218 50.605469-10.753906 6.320312-4.429687 5.683594-6.957031 6.570312-15.183594.878906-8.210937 6.710938-17.699218 6.710938-17.699218s-3.792969-6.332032-6.332032-13.917969c-.054687-.148437-.105468-.335937-.148437-.535156-1.085937-5.078125.816406-23.65625 3.113281-42.453125 1.964844-16.164063 4.210938-32.488282 5.070313-40.5 1.902343-17.703125 4.429687-46.164063 12.640625-51.222656 8.226562-5.070313 69.132812-29.730469 69.132812-29.730469s3.804688 59.449219 6.332032 97.398437c2.53125 37.953125 13.910156 49.332032 36.050781 46.800782 22.132812-2.527344 30.355469-27.199219 28.453125-63.875-1.890625-36.6875 1.953125-80.324219 1.953125-80.324219s75.214843 20.242187 82.800781 27.199219c4.179688 3.828124 6.636719 28.757812 8.527344 54.296874 1.535156 20.835938 2.695312 42.078126 4.125 52.589844 3.15625 23.394532 1.265625 29.089844 5.058594 42.371094 3.792968 13.28125-4.429688 22.132812-2.527344 25.933594 1.890625 3.796875 13.90625 1.265625 29.832031 7.589844 15.925781 6.320312 34.679687 32.253906 29.613281 47.4375zm0 0" fill="#fff"/><path d="m17.898438 439.339844h386.675781v64.828125h-386.675781zm0 0" fill="#ffc173"/><path d="m17.898438 447.835938h386.675781v23.808593h-386.675781zm0 0" fill="#ffb44d"/><path d="m9.613281 412.867188h403.246094v39.542968h-403.246094zm0 0" fill="#ffc173"/><path d="m9.613281 412.867188h403.246094v19.769531h-403.246094zm0 0" fill="#ffb44d"/><path d="m345.621094 336.339844s-4.429688 7.589844-21.503906.628906c-14.914063-6.070312-30.773438 4.722656-40.691407 2.089844v.011718c-13.226562 14-49.445312 17.980469-57.773437 15.148438-8.328125-2.820312-36.894532-9.664062-36.894532-9.664062 10.730469-1.085938 27.113282-7.492188 27.113282-7.492188s.816406-.878906 1.765625-2.246094c0 0 10.921875-1.304687 18.453125-5.289062 2.550781-1.347656 5.9375-2.160156 9.28125-2.652344 7.929687-.429688 12.964844-.660156 12.964844-.660156 2.007812-3.101563 6.03125-6.6875 10.722656-10.207032h.011718c6.75-1.921874 42.539063.074219 53.988282-16.992187 7.808594-11.628906 13.230468-56.289063 15.90625-83.570313 1.535156 20.835938 2.695312 42.078126 4.125 52.589844 3.15625 23.394532 1.265625 29.089844 5.058594 42.371094 3.792968 13.28125-4.429688 22.132812-2.527344 25.933594zm0 0" fill="#76ffd9"/><path d="m252.164062 353.058594s-16.730468 34.621094-49.5 27.640625c-22.652343-4.828125-35.058593-26.480469-35.058593-26.480469l-.613281-.980469c-9.257813 2.140625-21.964844 1.429688-40.972657-8.683593-11.621093 6.164062-35.035156 9.925781-47.929687.636718 6.320312-4.429687 5.683594-6.957031 6.570312-15.183594.878906-8.210937 6.710938-17.699218 6.710938-17.699218s-3.792969-6.332032-6.332032-13.917969c-.054687-.148437-.105468-.335937-.148437-.535156-1.085937-5.078125.816406-23.65625 3.113281-42.453125 8.191406 15.609375 24.703125 35.570312 43.847656 39.820312 0 .011719 10.113282 9.488282 13.28125 13.917969 3.152344 4.433594 12.640626 10.753906 12.640626 10.753906s19.71875-1.285156 29.488281 1.304688c9.78125 2.582031 23.332031-3.988281 30.0625 0 8.515625 5.039062-1.453125 15.863281-1.453125 15.863281s-16.382813 6.40625-27.113282 7.492188c0 0 28.566407 6.84375 36.894532 9.664062 4.105468 1.402344 14.964844 1.128906 26.511718-1.160156zm0 0" fill="#76ffd9"/><path d="m405.066406 391.367188c-5.058594 15.171874-25.925781 21.496093-25.925781 21.496093h-335.210937s-26.5625-4.421875-32.882813-13.910156c-3.417969-5.128906-3.699219-14.867187-.335937-24.03125-2.015626 8.003906 13.886718 10.15625 22.769531 12.757813 8.882812 2.589843 16.835937-6.980469 16.835937-6.980469s8.242188 5.945312 23.394532 6.980469c15.152343 1.023437 25.851562.4375 25.851562.4375s41.453125 5.839843 61.878906-.4375c0 0 59.175782 13.84375 94.054688 0 0 0 20.269531 4.167968 32.621094-6.980469 0 0 21.921874 10.449219 47.261718 0 0 0 16.761719 5.632812 26.96875-2.757813 0 0 11.601563 7.625 20.660156 8.328125 5.445313.417969 15.121094-3.761719 21.984376-7.167969 1.140624 4.429688 1.273437 8.648438.074218 12.265626zm0 0" fill="#76ffd9"/><path d="m187.34375 344.8125 1.414062-.253906c-.464843.046875-.933593.128906-1.40625.242187 0 .003907-.007812.011719-.007812.011719zm0 0" fill="#76ffd9"/><path d="m245.683594 214.273438c1.902344 36.675781-6.320313 61.347656-28.453125 63.875-22.140625 2.53125-33.519531-8.847657-36.050781-46.800782-2.527344-37.949218-6.332032-97.398437-6.332032-97.398437v-28.421875h72.71875v28.421875s.019532.054687.0625.136719c-.242187 2.683593-3.773437 44.691406-1.945312 80.1875zm0 0" fill="#fff"/><path d="m218.253906 253.597656c-18.359375 1.792969-30.394531-3.410156-36.90625-20.070312 2.816406 36.195312 14.175782 47.101562 35.882813 44.621094 17.851562-2.039063 26.648437-18.492188 28.386719-44.023438-5.347657 11.265625-14.277344 18.195312-27.363282 19.472656zm0 0" fill="#76ffd9"/><path d="m247.566406 105.527344v11.445312c-1.769531 6.058594-4.976562 11.492188-9.25 15.890625-5.746094 5.914063-13.40625 9.96875-22.015625 11.171875-1.753906.238282-3.523437.363282-5.296875.363282-1.765625 0-3.542968-.125-5.300781-.363282-14.554687-2.039062-26.382813-12.207031-30.855469-25.746094v-12.761718zm0 0" fill="#76ffd9"/><path d="m240.683594 110.574219s-3.445313 21.765625 13.390625 21.765625c10.015625 0 17.3125-12.210938 13.828125-26.769532-3.042969-12.710937 1.742187-25.40625 3.261718-31.472656 1.515626-6.066406-11.929687-11.222656-11.929687-11.222656h-18.550781zm0 0" fill="#76ffd9"/><path d="m181.800781 110.574219s3.441407 21.765625-13.394531 21.765625c-10.011719 0-17.3125-12.210938-13.824219-26.769532 3.039063-12.710937-1.746093-25.40625-3.261719-31.472656-1.519531-6.066406 11.453126-11.222656 11.453126-11.222656h19.027343zm0 0" fill="#76ffd9"/><path d="m253.84375 43.460938-3.101562 30.636718-.449219 4.023438-1.441407 13c-.964843 8.640625-4.796874 16.414062-10.535156 22.328125-5.746094 5.914062-13.40625 9.96875-22.015625 11.171875-1.753906.238281-3.523437.363281-5.296875.363281-1.765625 0-3.542968-.125-5.300781-.363281-17.21875-2.414063-30.625-16.207032-32.546875-33.5l-1.441406-13-.449219-4.023438-3.105469-30.636718zm0 0" fill="#fff"/><path d="m247.394531 25.5625s-7.269531-14.546875-20.011719-16.367188c-12.742187-1.820312-20.019531-1.820312-32.761718 0-12.738282 1.820313-20.011719 16.367188-20.011719 16.367188-16.679687 9.710938-11.839844 37.3125-11.839844 37.3125l8.496094 11.222656c-2.730469-22.75 11.523437-28.816406 22.144531-27.90625 10.613282.910156 24.570313.910156 35.1875 0 10.617188-.910156 24.871094 5.15625 22.140625 27.90625l8.496094-11.222656s4.84375-27.605469-11.839844-37.3125zm0 0" fill="#fff"/><path d="m253.84375 43.460938-3.101562 30.636718-.449219 4.023438c-2.917969-12.382813-13.417969-15.925782-21.695313-15.214844-10.613281.910156-24.574218.910156-35.191406 0-8.277344-.710938-18.777344 2.832031-21.691406 15.214844l-.449219-4.023438-3.105469-30.636718zm0 0" fill="#76ffd9"/><g fill="#434c54"><path d="m412.859375 405.03125h-6.957031c2.796875-3.167969 5.164062-6.875 6.601562-11.191406 4.226563-12.683594-3.089844-26.640625-7.832031-33.828125-7.21875-10.953125-17.0625-19.6875-26.324219-23.367188-9.335937-3.707031-17.535156-4.691406-22.960937-5.339843-.304688-.035157-.621094-.074219-.9375-.113282 1.738281-5.144531 4.035156-13.132812 1.234375-22.9375-1.078125-3.773437-1.636719-6.800781-2-9.996094-.007813-.070312-.011719-.140624-.023438-.210937-.269531-2.441406-.429687-4.996094-.621094-8.074219-.347656-5.621094-.78125-12.617187-2.183593-22.988281-.976563-7.210937-1.871094-20.289063-2.816407-34.132813-3.621093-52.992187-5.910156-71.617187-12.304687-77.480468-1.96875-1.804688-6.066406-5.5625-47.289063-17.9375-6.328124-1.898438-12.578124-3.714844-18.15625-5.304688.066407-.085937.136719-.164062.207032-.253906 5.648437-7.160156 7.527344-17.675781 5.027344-28.128906-2.109376-8.804688.550781-18.15625 2.308593-24.34375.367188-1.277344.6875-2.421875.933594-3.402344 2.160156-8.640625-5.199219-14.578125-11.171875-17.863281.558594-9.695313-.375-28.457031-14.308594-38.105469-2.929687-4.949219-11.199218-16.652344-24.792968-18.59375-13.402344-1.914062-21.574219-1.917969-34.976563 0-13.597656 1.941406-21.867187 13.648438-24.796875 18.59375-13.976562 9.679688-14.871094 28.535156-14.300781 38.203125-7.074219 4.074219-12.582031 10.253906-10.703125 17.765625.246094.980469.570312 2.125.933594 3.40625 1.761718 6.1875 4.417968 15.535156 2.308593 24.339844-2.5 10.453125-.621093 20.96875 5.03125 28.132812.609375.773438 1.257813 1.492188 1.9375 2.164063-18.992187 7.832031-46.507812 19.386719-52.3125 22.960937-10.234375 6.300782-13.085937 26.316406-15.996093 53.910156l-.335938 3.15625c-.464844 4.328126-1.351562 11.210938-2.378906 19.183594-5.367188 41.640625-7.402344 61.28125-5.292969 67.617188 1.5 4.492187 3.382813 8.566406 4.828125 11.40625-2.074219 4.082031-4.890625 10.585937-5.566406 16.902344-.117188 1.089843-.210938 2.082031-.292969 3-.4375 4.757812-.445313 4.8125-2.898437 6.53125-1.792969.917968-8.679688 1.683593-13.71875 2.246093-10.796876 1.207031-24.230469 2.707031-35.675782 7.835938-10.4375 4.679687-18.449218 14.382812-21.976562 26.617187-3.050782 10.578125-2.199219 21.265625 2.21875 27.890625.554687.835938 1.210937 1.628907 1.933594 2.394531-2.757813 1.214844-4.683594 3.964844-4.683594 7.171876v39.542968c0 4.332032 3.507812 7.839844 7.839844 7.839844h.449218v43.914062c0 4.328126 3.507813 7.835938 7.835938 7.835938h386.675781c4.328125 0 7.835937-3.507812 7.835937-7.835938v-43.914062h.449219c4.328125 0 7.835938-3.507812 7.835938-7.839844v-39.542968c0-4.328126-3.507813-7.835938-7.839844-7.835938zm-40.296875-53.820312c13.351562 5.304687 28.351562 27.839843 25.070312 37.671874-2.867187 8.609376-14.414062 14.257813-19.753906 16.148438h-17.078125c8.742188-12.902344 11.351563-31.660156 9.191407-43.910156-.753907-4.261719-4.824219-7.109375-9.082032-6.355469-4.261718.753906-7.105468 4.816406-6.355468 9.078125 1.449218 8.207031-.171876 24.828125-8.246094 34.453125-3.800782 4.53125-8.445313 6.730469-14.195313 6.730469h-5.355469c7.726563-6.464844 14.699219-15.492188 18.175782-28.015625 3.414062-12.296875 1.214844-22.351563-2.539063-29.9375 1.488281-.371094 2.792969-.863281 3.914063-1.425781 2.226562.613281 4.691406.914062 7.214844 1.214843 5.167968.621094 11.601562 1.394531 19.039062 4.347657zm-89.886719 53.820312c11.992188-13.957031 17.679688-32.824219 17.082031-43.007812-.253906-4.316407-3.9375-7.621094-8.285156-7.363282-4.320312.253906-7.617187 3.960938-7.363281 8.285156.570313 9.742188-9.097656 35.257813-27.15625 42.085938h-8.375c9.117187-7.152344 17.121094-16.179688 22.21875-25.855469 6.335937-12.027343 7.171875-20.382812 6.070313-26.011719 3.394531-1.710937 6.511718-3.664062 9.191406-5.882812 4.75.152344 9.679687-1.023438 14.28125-2.132812 6.8125-1.644532 13.84375-3.332032 19.976562-1.226563 2.882813 2.328125 14.039063 12.601563 9.515625 28.898437-6.972656 25.101563-34.1875 31.355469-38.574219 32.207032h-8.582031zm-143.339843 0c-6.382813-1.664062-22.074219-7.277344-30.382813-16.75-4.582031-5.222656-6.265625-16.070312-6.523437-19.808594-.292969-4.3125-4.039063-7.589844-8.335938-7.289062-4.320312.285156-7.589844 4.015625-7.304688 8.335937.125 1.910157 1.488282 18.960938 10.382813 29.097657 2.0625 2.355468 4.375 4.484374 6.8125 6.414062h-37.800781c-1.957032-2.601562-5.449219-8.578125-7.566406-20.0625-2.347657-12.746094 4.878906-24.378906 8.308593-29.035156 4.121094-.507813 7.625-1.0625 10.542969-1.957032 6.882812 3.585938 14.648438 4.644532 21.367188 4.644532 4.195312 0 7.988281-.410156 10.894531-.863282 5.144531-.796874 10.964843-2.28125 16.164062-4.46875 6.566407 3.238282 12.480469 5.417969 17.824219 6.789063-.699219 9.527344 1.074219 25.09375 16.6875 37.074219l2.308594 1.777344c2.859375 2.195312 5.5 4.21875 8.023437 6.101562zm20.878906-77.421875c4.96875-.238281 13.914062-.410156 20.527344.367187 1.363281.527344 2.214843.761719 2.367187.800782.664063.175781 1.332031.257812 1.988281.257812.316406 0 .628906-.039062.941406-.078125 5.972657 1.367188 12.199219.425781 17.722657-.410156 2.699219-.410156 6.984375-1.0625 8.910156-.78125-.316406.769531-.886719 1.765625-1.535156 2.6875-.007813.007813-.015625.015625-.019531.027344-5.421876 1.992187-16.203126 5.574219-23.148438 6.277343-.085938.007813-.167969.027344-.253906.039063-.113282.015625-.226563.027344-.339844.046875-3.890625.53125-7.277344 2.277344-10.847656 4.136719-5.667969 2.957031-12.195313 6.355469-22.628906 5.15625-.191407-.03125-.382813-.058594-.570313-.074219-3.804687-.492188-8.125-1.59375-13.09375-3.535156 4.832031-4.730469 13.8125-11.011719 19.980469-14.917969zm79.535156 8.847656c3.699219-1.957031 12.203125-2.582031 17.519531-2.433593 1.710938.445312 7.019531 2.007812 12.308594 5.3125-14.011719 6.914062-36.414063 9.117187-41.402344 7.46875-2.085937-.707032-5.3125-1.640626-9.011719-2.644532.929688-.433594 1.777344-1.035156 2.476563-1.792968.066406-.074219.15625-.175782.246094-.277344 4.277343-.746094 11.761719-2.410156 17.863281-5.632813zm45.722656-4.957031c-.015625-.003906-.027344-.007812-.042968-.011719-.296876-.085937-.542969-.203125-.71875-.363281-3.898438-3.480469-8.183594-6.082031-12.082032-7.988281 3.570313-2.742188 7.929688-5.695313 12.402344-8.507813 10.800781 1.941406 26.273438 6.164063 30.457031 10.433594.878907.894531 1.828125 1.691406 2.8125 2.433594-7.855469-.898438-15.3125.886718-21.636719 2.414062-4.074218.984375-9.023437 2.179688-11.191406 1.589844zm-101.699218 23.378906c1.777343-.925781 3.589843-1.867187 4.851562-2.292968 6.191406 1.496093 27.742188 6.761718 34.511719 9.058593 2.320312.789063 6.023437 1.207031 10.558593 1.207031.527344 0 1.066407-.007812 1.613282-.019531-6.875 6.796875-17.292969 13.113281-31.007813 10.195313-11.398437-2.425782-19.914062-10.175782-24.882812-15.953125 1.578125-.75 3.027343-1.5 4.355469-2.195313zm156.839843-42.320312c.6875 2.40625.808594 4.621094.625 6.683594-5.132812-.503907-11.414062-1.949219-14.554687-5.152344-4.152344-4.234375-11.351563-7.496094-18.683594-9.914063 3.761719-.394531 7.953125-.171875 11.234375 1.675781 5.132813 2.886719 10.230469 3.851563 14.746094 3.851563 2.054687 0 3.984375-.203125 5.75-.511719.257812 1.082032.546875 2.195313.882812 3.367188zm-218.757812 25.367187c-3.078125 1.488281-7.585938 2.960938-12.59375 3.917969 1.910156-2.828125 3.746093-6.132812 5.371093-10.011719 3.707032-8.832031 16.199219-15.082031 24.183594-18.042969 1.347656 1.859376 3.324219 3.816407 5.402344 5.632813-6.472656 4.5-14.527344 10.65625-18.585938 15.933594-.464843.605469-1.359374 1.273437-2.574218 1.949219-.417969.167968-.816406.382812-1.203125.621093zm-21.675781-12.15625c-2.628907 6.269531-5.886719 10.308594-8.613282 12.847657.300782-1.621094.457032-3.28125.617188-5.003907.074218-.84375.160156-1.761719.269531-2.765625.492187-4.59375 3.367187-10.511718 4.988281-13.40625 6.582032-5.390625 17.558594-12.351562 26.414063-14.226562-8.917969 4.53125-19.160157 11.789062-23.675781 22.554687zm72.085937 60.730469-2.320313-1.785156c-9.507812-7.292969-10.917968-16.710938-10.65625-22.6875 1.355469-.027344 2.660157-.109375 3.914063-.238282 5.027344 7.101563 17.847656 22.3125 37.832031 26.570313 3.492188.746094 6.859375 1.085937 10.085938 1.085937 22.882812 0 39.023437-17.121093 46.222656-29.472656 1.390625-.324218 2.78125-.675781 4.167969-1.054687-.234375 2.554687-1.28125 6.6875-4.582031 12.953125-9.996094 18.976562-32.710938 33.160156-46.335938 33.160156-14.222656 0-20.789062-5.046875-38.328125-18.53125zm30.257813-117.71875c-1.03125-.53125-1.839844-1.109375-2.488282-1.652344-5.859375-4.886718-9.410156-15.9375-10.839844-33.703125 7.355469-.363281 16.097657-2.800781 23.054688-9.550781 5.539062 4.007812 14.21875 8.492188 25.621094 8.890625-.195313 3.246094-.511719 6.453125-.984375 9.535156-2.253907 14.667969-8.019531 26.632813-20.550781 28.066407-4.5625.519531-9.625.570312-13.8125-1.585938-1.03125-.53125 1.261718.648438 0 0zm-42.796876-193.660156c-.128906-.453125-.253906-.886719-.367187-1.292969.316406-.28125.726563-.589844 1.183594-.910156l3.171875 4.191406 1.652344 14.875c.933593 8.378906 4.09375 16.066406 8.890624 22.460937.050782 3.140626-.457031 6.953126-2.007812 8.75-.335938.390626-1.128906 1.308594-3.84375 1.308594-1.878906 0-3.273438-1.269531-4.113281-2.335937-2.089844-2.644531-3.734375-7.914063-2.09375-14.773438 3.066406-12.792969-.402344-24.988281-2.472657-32.273437zm22.59375-17.765625c3.519532-3.640625 8.863282-3.488281 10.417969-3.355469 11.09375.949219 25.433594.949219 36.527344 0 1.554687-.132812 6.902344-.285156 10.421875 3.355469 3.449219 3.566406 3.828125 9.523437 3.417969 14.363281l-.152344 1.511719-1.894531 17.023437c-1.527344 13.742188-12.160156 24.683594-25.851563 26.605469-2.789062.390625-5.617187.390625-8.40625 0-13.695312-1.921875-24.328125-12.863281-25.855469-26.605469l-1.882812-16.945312-.164062-1.617188c-.40625-4.832031-.023438-10.773437 3.421874-14.335937zm80.773438 16.574219c-.105469.375-.21875.773437-.335938 1.183593-2.070312 7.289063-5.539062 19.484375-2.476562 32.28125 1.640625 6.859375-.003906 12.128907-2.09375 14.773438-.839844 1.066406-2.234375 2.335937-4.113281 2.335937-2.714844 0-3.503907-.917968-3.84375-1.308594-1.664063-1.929687-2.128907-6.1875-1.984375-9.429687 4.515625-6.257813 7.492187-13.699219 8.390625-21.78125l1.65625-14.878906 3.246093-4.289063c.605469.386719 1.144532.765625 1.554688 1.113282zm-25.382812 137.527343c.003906.039063.003906.078125.003906.117188.046875 1.039062.09375 2.074219.148437 3.101562.039063.792969.078125 1.585938.109375 2.386719-9.441406-.484375-15.949218-5.109375-18.898437-7.730469v-24.152343c0-4.332032-3.507813-7.839844-7.835938-7.839844-4.332031 0-7.839843 3.507812-7.839843 7.839844v25.050781c-4.324219 6-10.699219 7.417969-15.265626 7.550781-.203124-3.109375-.414062-6.289062-.625-9.507812-1.121093-17.128907-2.226562-34.261719-3.332031-51.390626-.691406-10.761718-1.214843-18.917968-1.414062-22.039062.527343-.5 1.003906-1 1.417969-1.484375 1.742187-2.039063 2.964843-4.347656 3.832031-6.703125 5.003906 2.894531 10.609375 4.882812 16.609375 5.722656 2.117187.296875 4.25.445313 6.382812.445313 2.132813 0 4.261719-.148438 6.382813-.445313 6.152343-.863281 11.898437-2.9375 17-5.957031.867187 2.4375 2.113281 4.828125 3.914062 6.9375.410157.480469.878907.972656 1.394531 1.460937-.652343 7.984376-3.375 44.09375-1.984374 76.636719.003906.039063-1.390626-32.542969 0 0zm-59.160157-179.117187c1.300781-.757813 2.371094-1.902344 3.054688-3.242188 1.554687-3.039062 7.121093-11.144531 14.125-12.144531 11.992187-1.714844 18.558593-1.714844 30.542969 0 7.003906 1 12.570312 9.105469 14.125 12.144531.683593 1.351563 1.746093 2.476563 3.054687 3.242188 5.097656 2.964844 7.269531 8.972656 8.105469 14.769531-.199219-.226563-.402344-.441406-.601563-.648437-5.109375-5.285157-12.375-8.195313-20.253906-8.195313-.917969 0-1.84375.039063-2.773437.117187-10.125.867188-23.726563.867188-33.851563 0-8.929687-.761718-17.324219 2.179688-23.027344 8.078126-.199219.207031-.402343.421874-.601562.644531.832031-5.796875 3.007812-11.800781 8.101562-14.765625zm-80.105469 202.917968c1.039063-8.0625 1.9375-15.027343 2.417969-19.519531l.339844-3.183593c.867187-8.25 1.953125-18.511719 3.632813-27.132813 2.367187-12.125 4.757812-14.808594 5.082031-15.128906 5.113281-3.074219 34.863281-15.582031 57.808593-24.976563 1.125 17.546875 3.398438 52.886719 5.203126 80.101563.132812 2.152343.285156 4.300781.425781 6.453125 1.632812 24.472656 6.761719 39.058594 16.640625 47.296875 7.707031 6.429687 18.375 8.160156 28.121094 6.769531 11.644531-1.332031 24.492187-7.882812 31.136718-28.027344.316406-.957031.617188-1.945312.90625-2.96875.71875-2.554687 1.34375-5.308594 1.863282-8.273437 1.558593-8.894531 2.167968-19.703125 1.492187-32.800781-.554687-10.671876-.601563-21.363282-.421875-32.046876.269531-15.207031 1.054688-29.09375 1.644531-37.808593 30.972657 8.574219 63.792969 18.824219 70.050781 22.699219 3.53125 7.507812 6.175782 46.199218 7.613282 67.207031 1.003906 14.722656 1.875 27.4375 2.917968 35.160156 1.328126 9.8125 1.742188 16.496094 2.074219 21.863281.058594.9375.117188 1.851563.175781 2.746094-2.890624.578125-6.808593.667969-10.648437-1.496094-1.917969-1.078125-3.890625-1.890625-5.875-2.484375 3.882813-4.441406 6.972656-9.582031 7.792969-15.164062.945312-6.46875 1.695312-19.691407 2.222656-39.300781.117188-4.324219-3.296875-7.925782-7.625-8.042969-4.335938-.152344-7.925781 3.296875-8.042969 7.621093-.496093 18.460938-1.230469 31.761719-2.0625 37.449219-.371093 2.539063-2.328125 5.417969-5.042969 8.242188.199219-7.804688.285157-23.40625.035157-55.617188-.03125-4.308593-3.535157-7.777343-7.835938-7.777343-.019531 0-.042969 0-.0625 0-4.328125.035156-7.808593 3.570312-7.773437 7.898437.386718 49.554687-.070313 58.699219-.25 60.371094-.679688 2.667969-1.742188 5.917969-2.511719 8.183593-2.554687 1.402344-6.238281 3.484376-10.34375 5.980469 4.039063-12.046875 7.328125-26.9375 7.328125-43.542969 0-4.328124-3.507812-7.835937-7.835938-7.835937-4.332031 0-7.839843 3.507813-7.839843 7.835937 0 29.660157-12.203125 53.722657-17.207031 62.339844-5.691407.117188-15.152344.863282-21.566407 4.25-1.21875.644532-2.609375 1.214844-4.054687 1.71875-.71875-4.089844-3.199219-7.585937-7.054688-9.863281-5.945312-3.519531-13.039062-2.441406-19.90625-1.402344-4.464844.675781-9.078125 1.378907-12.144531.570313-1.359375-.359375-2.851563-.65625-4.433594-.894532-4.011719-1.851562-12.722656-7.035156-20.375-19.527343-6.347656-10.363281-6.496093-24.417969-6.496093-24.609375-.011719-4.320313-3.515626-7.816406-7.839844-7.816406-4.328125 0-7.835938 3.507812-7.835938 7.835937 0 .75.101563 18.5625 8.808594 32.777344 1.835938 3 3.742188 5.671875 5.667969 8.074219-2.367188-1.875-4.4375-3.726563-5.261719-4.875-1.035156-1.453126-2.617188-3.277344-4.355469-5.148438-.054687-.058594-.109375-.121094-.164062-.179688-2.511719-2.695312-5.320313-5.46875-7.300781-7.386718v-40.054688c0-4.328125-3.507813-7.835937-7.835938-7.835937s-7.835938 3.507812-7.835938 7.835937v28.539063c-.527343-.980469-.972656-2.066407-1.257812-3.308594-2.929688-12.59375-3.304688-39.289063-3.308594-39.558594-.054687-4.289062-3.550781-7.734375-7.832031-7.734375-.035156 0-.070313 0-.105469 0-4.328125.058594-7.789062 3.609375-7.734375 7.9375.015625 1.164063.402344 28.664063 3.710938 42.90625.910156 3.902344 2.472656 7.214844 4.40625 10-6.820313 2.710938-13.070313 6.523438-17.726563 9.746094-.5625-1.328125-1.117187-2.757812-1.617187-4.238281-1.121094-6.335938 3.617187-43.121094 5.902343-60.847657 1.039063-8.0625-2.285156 17.726563 0 0zm-81.078124 144.492188c1.0625-3.6875 4.488281-12.691406 13.328124-16.652344 4.992188-2.238281 10.832032-3.65625 16.679688-4.664062-3.550781 7.832031-6.25 18.097656-4.171875 29.371094 1.320313 7.164062 3.132813 12.808593 5.054687 17.222656h-3.65625c-11.105468-1.949219-24.441406-6.53125-27.035156-10.425782-1.519531-2.273437-2.101562-8.25-.199218-14.851562zm387.65625 40.953125v23.871094h-303.226563c-4.328125 0-7.835937 3.507812-7.835937 7.835937 0 4.332032 3.507812 7.839844 7.835937 7.839844h294.941406v36.074219h-371v-36.074219h46.019531c4.328126 0 7.835938-3.507812 7.835938-7.839844 0-4.328125-3.507812-7.835937-7.835938-7.835937h-54.308593v-23.871094zm0 0"/><path d="m174.871094 491.167969h8.746094c4.328124 0 7.835937-3.507813 7.835937-7.839844 0-4.328125-3.507813-7.835937-7.835937-7.835937h-8.746094c-4.328125 0-7.835938 3.507812-7.835938 7.835937 0 4.332031 3.507813 7.839844 7.835938 7.839844zm0 0"/><path d="m213.722656 491.167969h17.492188c4.328125 0 7.835937-3.507813 7.835937-7.839844 0-4.328125-3.507812-7.835937-7.835937-7.835937h-17.492188c-4.328125 0-7.835937 3.507812-7.835937 7.835937 0 4.332031 3.507812 7.839844 7.835937 7.839844zm0 0"/><path d="m300.347656 207.585938h.148438c4.328125-.082032 7.769531-3.65625 7.691406-7.984376l-.269531-14.570312c-.082031-4.277344-3.574219-7.6875-7.835938-7.6875-.046875 0-.097656 0-.148437 0-4.328125.082031-7.769532 3.652344-7.6875 7.980469l.269531 14.570312c.078125 4.277344 3.570313 7.691407 7.832031 7.691407zm0 0"/><path d="m131.84375 233.449219c4.332031 0 7.835938-3.507813 7.835938-7.835938v-34.109375c0-4.328125-3.503907-7.835937-7.835938-7.835937-4.328125 0-7.835938 3.507812-7.835938 7.835937v34.109375c0 4.328125 3.507813 7.835938 7.835938 7.835938zm0 0"/><path d="m186.964844 304.542969c7.308594 3.910156 15.878906 5.894531 25.222656 5.894531 3.957031 0 8.054688-.355469 12.253906-1.074219 14.402344-2.457031 25.734375-10.195312 33.679688-23.003906 8.503906-13.703125 13.070312-33.546875 13.578125-58.988281.875-43.789063.027343-59.695313-.011719-60.351563-.238281-4.320312-3.945312-7.625-8.257812-7.386719-4.324219.238282-7.632813 3.9375-7.390626 8.257813.007813.15625.851563 15.96875-.007812 59.167969-.8125 40.625-12.328125 63.117187-34.230469 66.855468-16.636719 2.84375-38.023437.03125-45.402343-29.488281-8.289063-33.148437-12.539063-81.152343-10.949219-88.867187.875-4.238282-1.851563-8.382813-6.089844-9.257813-4.230469-.882812-8.382813 1.851563-9.257813 6.089844-2.40625 11.648437 2.925782 63.179687 11.089844 95.839844 4.316406 17.257812 12.984375 29.476562 25.773438 36.3125zm0 0"/><path d="m191.382812 75.867188h6.371094c4.332032 0 7.839844-3.507813 7.839844-7.835938s-3.507812-7.835938-7.839844-7.835938h-6.371094c-4.328124 0-7.835937 3.507813-7.835937 7.835938s3.507813 7.835938 7.835937 7.835938zm0 0"/><path d="m223.429688 75.867188h6.367187c4.332031 0 7.839844-3.507813 7.839844-7.835938s-3.507813-7.835938-7.839844-7.835938h-6.367187c-4.328126 0-7.835938 3.507813-7.835938 7.835938s3.507812 7.835938 7.835938 7.835938zm0 0"/><path d="m202.757812 84.226562v4.941407c0 4.332031 3.507813 7.839843 7.835938 7.839843 4.332031 0 7.839844-3.507812 7.839844-7.839843v-4.941407c0-4.328124-3.507813-7.835937-7.839844-7.835937-4.328125 0-7.835938 3.507813-7.835938 7.835937zm0 0"/></g></svg>