<?xml version="1.0" encoding="utf-8"?>
<!-- Generator: Adobe Illustrator 23.0.1, SVG Export Plug-In . SVG Version: 6.00 Build 0)  -->
<svg version="1.1" id="Capa_1" xmlns="http://www.w3.org/2000/svg" xmlns:xlink="http://www.w3.org/1999/xlink" x="0px" y="0px"
	 viewBox="0 0 422.8 288.6" style="enable-background:new 0 0 422.8 288.6;" xml:space="preserve">
<style type="text/css">
	.st0{fill:#FFCE00;}
	.st1{fill:#FFE529;}
</style>
<g>
	<g>
		<g>
			<g>
				<path class="st0" d="M154.8,218.4l25-25c60.2-60.2,157.7-60.2,217.9,0l25,25l-25,25c-60.2,60.2-157.7,60.2-217.9,0L154.8,218.4z
					"/>
			</g>
			<g>
				<path class="st1" d="M267.9,218.4l-25-25c-60.2-60.2-157.7-60.2-217.9,0l-25,25l25,25c60.2,60.2,157.7,60.2,217.9,0L267.9,218.4
					z"/>
			</g>
		</g>
		<g>
			<g>
				<path class="st1" d="M211.4,267.9v-35.4c0-85.1,68.9-154.1,154-154.1h35.4v35.4c0,85.1-69,154.1-154.1,154.1H211.4z"/>
			</g>
			<g>
				<path class="st0" d="M211.4,267.9v-35.4c0-85.1-68.9-154.1-154-154.1H22v35.4c0,85.1,69,154.1,154.1,154.1H211.4z"/>
			</g>
		</g>
		<g>
			<path class="st1" d="M211.4,267.9l-25-25c-60.2-60.2-60.2-157.7,0-217.9l25-25l25,25c60.2,60.2,60.2,157.7,0,217.9L211.4,267.9z"
				/>
		</g>
		<g>
			<path class="st0" d="M236.4,25l-25-25v267.9l25-25C296.6,182.7,296.6,85.2,236.4,25L236.4,25z"/>
		</g>
	</g>
</g>
</svg>
